<svg width="37" height="37" viewBox="0 0 37 37" fill="none" xmlns="http://www.w3.org/2000/svg">
<circle cx="18.6952" cy="18.5" r="17.5" fill="#F6F7FB" stroke="#CED4DA"/>
<path d="M25.8904 23V17.8C25.3904 17.9 24.8904 18 24.3904 18H23.8904V24H13.8904V17C13.8904 14.2 16.0904 12 18.8904 12C18.9904 10.7 19.5904 9.6 20.3904 8.7C20.0904 8.3 19.4904 8 18.8904 8C17.7904 8 16.8904 8.9 16.8904 10V10.3C13.8904 11.2 11.8904 13.9 11.8904 17V23L9.89038 25V26H27.8904V25L25.8904 23ZM16.8904 27C16.8904 28.1 17.7904 29 18.8904 29C19.9904 29 20.8904 28.1 20.8904 27H16.8904ZM27.8904 12.5C27.8904 14.4 26.2904 16 24.3904 16C22.4904 16 20.8904 14.4 20.8904 12.5C20.8904 10.6 22.4904 9 24.3904 9C26.2904 9 27.8904 10.6 27.8904 12.5Z" fill="#323338"/>
</svg>
