<svg width="46" height="46" viewBox="0 0 46 46" fill="none" xmlns="http://www.w3.org/2000/svg">
<path fill-rule="evenodd" clip-rule="evenodd" d="M22.9822 46C35.6751 46 45.9644 35.7025 45.9644 23C45.9644 10.2975 35.6751 0 22.9822 0C10.2895 0 0 10.2975 0 23C0 35.7025 10.2895 46 22.9822 46ZM26.5295 17.7705C28.4885 15.8098 28.4885 12.6311 26.5295 10.6705C24.5704 8.70985 21.3941 8.70985 19.435 10.6705C17.476 12.6311 17.476 15.8098 19.435 17.7705L22.9822 21.3204L26.5295 17.7705ZM28.2078 26.55C30.1669 28.5107 33.3432 28.5107 35.3023 26.55C37.2613 24.5894 37.2613 21.4107 35.3023 19.45C33.3432 17.4895 30.1669 17.4895 28.2078 19.45L24.6606 23.0001L28.2078 26.55ZM26.5295 35.3296C28.4885 33.369 28.4885 30.1902 26.5295 28.2296L22.9822 24.6797L19.435 28.2296C17.476 30.1902 17.476 33.369 19.435 35.3296C21.3941 37.2902 24.5704 37.2902 26.5295 35.3296ZM10.6622 26.55C8.70313 24.5894 8.70313 21.4107 10.6622 19.45C12.6213 17.4895 15.7976 17.4895 17.7567 19.45L21.3039 23.0001L17.7567 26.55C15.7976 28.5107 12.6213 28.5107 10.6622 26.55Z" fill="#2A2D37"/>
</svg>
