<svg width="200" height="35" viewBox="0 0 200 35" fill="none" xmlns="http://www.w3.org/2000/svg">
<g clip-path="url(#clip0_142_3076)">
<path d="M164.184 0H139.375C137.443 0 135.878 1.55238 135.878 3.46667C135.878 5.38095 137.443 6.93333 139.375 6.93333H148.281V31.5333C148.281 33.4476 149.85 35 151.782 35C153.714 35 155.283 33.4476 155.283 31.5333V6.93333H164.189C166.121 6.93333 167.69 5.38095 167.69 3.46667C167.69 1.55238 166.121 0 164.189 0H164.184Z" fill="white"/>
<path d="M48.7209 7.06191C52.599 7.06191 56.1512 9.17143 57.9948 12.5619C58.5907 13.6762 59.7547 14.3667 61.0349 14.3667C61.5983 14.3667 62.1569 14.2286 62.6597 13.9619C64.3311 13.0619 64.9596 10.981 64.0611 9.32381C61.021 3.70952 55.1409 0.214287 48.7209 0.214287C39.121 0.214287 31.3089 7.97143 31.3089 17.5C31.3089 27.0286 39.121 34.7857 48.7209 34.7857C54.7406 34.7857 60.2575 31.7619 63.4698 26.6905C63.9633 25.9143 64.1169 24.9952 63.9121 24.1048C63.7073 23.2143 63.1626 22.4524 62.3804 21.9667C61.8311 21.6238 61.2025 21.4429 60.5554 21.4429C59.3589 21.4429 58.2649 22.0381 57.627 23.0429C55.6903 26.1095 52.3569 27.9381 48.7162 27.9381C42.9153 27.9381 38.1992 23.2571 38.1992 17.5C38.1992 11.7429 42.9153 7.06191 48.7162 7.06191H48.7209Z" fill="#35A3DC"/>
<path d="M69.01 34.7333C70.7931 35.4667 72.8416 34.6286 73.5818 32.8571L81.9572 12.519L90.3326 32.8571C91.0729 34.6238 93.1214 35.4667 94.9045 34.7333C96.6875 34 97.5349 31.9714 96.7946 30.2L85.2394 2.2619C84.9135 1.39048 84.2385 0.647619 83.3027 0.266667C83.0001 0.142857 82.6835 0.0666667 82.3716 0.0285714C82.3529 0.0238095 82.0084 0 81.9619 0C81.9153 0 81.5662 0.0238095 81.5475 0.0285714C81.2356 0.0666667 80.9237 0.142857 80.6211 0.266667C79.6853 0.652381 79.0102 1.39048 78.6843 2.2619L67.1245 30.2048C66.3842 31.9714 67.2316 34 69.0147 34.7381L69.01 34.7333Z" fill="white"/>
<path d="M131.581 3.46667V19.5476C131.581 24.9667 128.853 29.7333 124.724 32.4952C122.354 34.081 119.519 35 116.474 35C113.429 35 110.594 34.081 108.224 32.4952C104.095 29.7333 101.366 24.9667 101.366 19.5476V3.46667C101.366 1.55238 102.931 0 104.863 0C106.795 0 108.364 1.55238 108.364 3.46667V19.5476C108.364 24.1286 111.995 27.8429 116.474 27.8429C120.953 27.8429 124.584 24.1286 124.584 19.5476V3.46667C124.584 1.55238 126.148 0 128.08 0C130.012 0 131.581 1.55238 131.581 3.46667Z" fill="white"/>
<path d="M198.957 15.5667C199.628 14.1429 200 12.5524 200 10.8667C200 9.18095 199.628 7.58571 198.957 6.16667C197.244 2.51905 193.599 0 189.381 0H176.359C175.512 0 174.734 0.295238 174.129 0.790476C174.054 0.852381 173.984 0.914286 173.915 0.985714C173.882 1.01429 173.854 1.04286 173.826 1.07619C173.826 1.07619 173.812 1.09048 173.808 1.09524C173.803 1.1 173.798 1.10952 173.789 1.11429C173.207 1.73333 172.858 2.55714 172.858 3.46667V31.4619C172.858 33.3762 174.427 34.9286 176.359 34.9286C178.291 34.9286 179.855 33.3762 179.855 31.4619V21.7286H186.629L191.895 33.0286C192.686 34.7619 194.748 35.4905 196.499 34.6571C198.254 33.8238 199.032 31.7381 198.24 30L193.887 20.7C196.103 19.6429 197.9 17.819 198.957 15.5667ZM179.855 14.5714V7.1619H189.311C191.299 7.1619 192.979 8.77619 192.989 10.8143V10.8952C192.984 12.3476 192.132 13.5857 190.917 14.1857C190.419 14.4333 189.86 14.5714 189.278 14.5714H179.855Z" fill="white"/>
<path d="M18.953 34.781C18.3431 34.9 17.7192 34.9286 17.1 34.9286H3.41721C2.47212 34.9286 1.61549 34.5381 1.00095 33.9048C0.330548 33.2238 -0.0605228 32.2571 0.0093112 31.1952C0.135012 29.3429 1.72257 27.9429 3.54291 27.9429H16.7509C18.6271 27.9429 20.2705 26.4667 20.3217 24.5476C20.3729 22.5762 18.8273 20.9571 16.9091 20.9571C16.9091 20.9571 12.7098 20.8476 9.92109 20.7429C4.70681 20.5429 0.311925 16.4095 0.0186224 11.0857C0.0093112 10.8857 0 10.6857 0 10.4857C0 4.92381 4.21332 0.37619 9.54864 0H23.9065C24.8516 0 25.7082 0.390476 26.3228 1.02381C26.9978 1.70952 27.3889 2.69524 27.3098 3.76667C27.1701 5.60952 25.5779 6.98571 23.7715 6.98571H10.4146C9.47415 6.98571 8.61752 7.37619 8.00298 8.00952C7.38378 8.64286 7.00203 9.51905 7.00203 10.481C7.00203 12.4095 8.52906 13.9714 10.4146 13.9714C10.4146 13.9714 14.6186 14.081 17.4073 14.1905C22.6169 14.3952 27.0071 18.5238 27.3004 23.8524C27.3098 24.0524 27.3191 24.2524 27.3191 24.4524C27.3191 29.5905 23.7203 33.8667 18.953 34.781Z" fill="white"/>
<path d="M48.8233 12.4238C46.0858 12.4238 43.8604 14.7 43.8604 17.4952C43.8604 20.2905 46.0858 22.5714 48.8233 22.5714C51.5608 22.5714 53.7769 20.2952 53.7769 17.4952C53.7769 14.6952 51.5515 12.4238 48.8233 12.4238Z" fill="#35A3DC"/>
</g>
<defs>
<clipPath id="clip0_142_3076">
<rect width="200" height="35" fill="white"/>
</clipPath>
</defs>
</svg>
