<svg width="120" height="21" viewBox="0 0 120 21" fill="none" xmlns="http://www.w3.org/2000/svg">
<g clip-path="url(#clip0_142_3068)">
<path d="M98.5107 0H83.6249C82.4656 0 81.527 0.931429 81.527 2.08C81.527 3.22857 82.4656 4.16 83.6249 4.16H88.9686V18.92C88.9686 20.0686 89.9099 21 91.0692 21C92.2284 21 93.1698 20.0686 93.1698 18.92V4.16H98.5135C99.6727 4.16 100.614 3.22857 100.614 2.08C100.614 0.931429 99.6727 0 98.5135 0H98.5107Z" fill="#595656"/>
<path d="M29.2325 4.23714C31.5594 4.23714 33.6907 5.50286 34.7969 7.53714C35.1545 8.20571 35.8528 8.62 36.621 8.62C36.959 8.62 37.2942 8.53714 37.5958 8.37714C38.5987 7.83714 38.9758 6.58857 38.4367 5.59429C36.6126 2.22571 33.0846 0.128571 29.2325 0.128571C23.4726 0.128571 18.7854 4.78286 18.7854 10.5C18.7854 16.2171 23.4726 20.8714 29.2325 20.8714C32.8443 20.8714 36.1545 19.0571 38.0819 16.0143C38.378 15.5486 38.4702 14.9971 38.3473 14.4629C38.2244 13.9286 37.8975 13.4714 37.4282 13.18C37.0986 12.9743 36.7215 12.8657 36.3333 12.8657C35.6154 12.8657 34.9589 13.2229 34.5762 13.8257C33.4142 15.6657 31.4141 16.7629 29.2297 16.7629C25.7492 16.7629 22.9195 13.9543 22.9195 10.5C22.9195 7.04571 25.7492 4.23714 29.2297 4.23714H29.2325Z" fill="#35A3DC"/>
<path d="M41.406 20.84C42.4759 21.28 43.7049 20.7771 44.1491 19.7143L49.1743 7.51143L54.1996 19.7143C54.6437 20.7743 55.8728 21.28 56.9427 20.84C58.0125 20.4 58.5209 19.1829 58.0768 18.12L51.1437 1.35714C50.9481 0.834286 50.5431 0.388571 49.9816 0.16C49.8 0.0857143 49.6101 0.04 49.4229 0.0171429C49.4118 0.0142857 49.2051 0 49.1771 0C49.1492 0 48.9397 0.0142857 48.9285 0.0171429C48.7414 0.04 48.5542 0.0857143 48.3726 0.16C47.8112 0.391429 47.4061 0.834286 47.2106 1.35714L40.2747 18.1229C39.8305 19.1829 40.3389 20.4 41.4088 20.8429L41.406 20.84Z" fill="#595656"/>
<path d="M78.9488 2.08V11.7286C78.9488 14.98 77.3119 17.84 74.8341 19.4971C73.4123 20.4486 71.7112 21 69.8843 21C68.0575 21 66.3563 20.4486 64.9345 19.4971C62.4568 17.84 60.8199 14.98 60.8199 11.7286V2.08C60.8199 0.931429 61.7584 0 62.9177 0C64.0769 0 65.0183 0.931429 65.0183 2.08V11.7286C65.0183 14.4771 67.1971 16.7057 69.8843 16.7057C72.5715 16.7057 74.7503 14.4771 74.7503 11.7286V2.08C74.7503 0.931429 75.6889 0 76.8482 0C78.0074 0 78.9488 0.931429 78.9488 2.08Z" fill="#595656"/>
<path d="M119.374 9.34C119.777 8.48571 120 7.53143 120 6.52C120 5.50857 119.777 4.55143 119.374 3.7C118.346 1.51143 116.159 0 113.628 0H105.815C105.307 0 104.84 0.177143 104.477 0.474286C104.433 0.511429 104.391 0.548571 104.349 0.591429C104.329 0.608571 104.312 0.625714 104.296 0.645714C104.296 0.645714 104.287 0.654286 104.285 0.657143C104.282 0.66 104.279 0.665714 104.273 0.668571C103.924 1.04 103.715 1.53429 103.715 2.08V18.8771C103.715 20.0257 104.656 20.9571 105.815 20.9571C106.975 20.9571 107.913 20.0257 107.913 18.8771V13.0371H111.977L115.137 19.8171C115.612 20.8571 116.849 21.2943 117.899 20.7943C118.952 20.2943 119.419 19.0429 118.944 18L116.332 12.42C117.662 11.7857 118.74 10.6914 119.374 9.34ZM107.913 8.74286V4.29714H113.586C114.779 4.29714 115.788 5.26571 115.793 6.48857V6.53714C115.79 7.40857 115.279 8.15143 114.55 8.51143C114.251 8.66 113.916 8.74286 113.567 8.74286H107.913Z" fill="#595656"/>
<path d="M11.3718 20.8686C11.0058 20.94 10.6315 20.9571 10.26 20.9571H2.05033C1.48327 20.9571 0.969296 20.7229 0.600573 20.3429C0.198329 19.9343 -0.0363137 19.3543 0.00558672 18.7171C0.0810075 17.6057 1.03354 16.7657 2.12575 16.7657H10.0505C11.1762 16.7657 12.1623 15.88 12.193 14.7286C12.2237 13.5457 11.2964 12.5743 10.1455 12.5743C10.1455 12.5743 7.62588 12.5086 5.95265 12.4457C2.82409 12.3257 0.187155 9.84571 0.0111734 6.65143C0.00558672 6.53143 0 6.41143 0 6.29143C0 2.95429 2.52799 0.225714 5.72918 0H14.3439C14.911 0 15.4249 0.234286 15.7937 0.614286C16.1987 1.02571 16.4333 1.61714 16.3859 2.26C16.3021 3.36571 15.3467 4.19143 14.2629 4.19143H6.24875C5.68449 4.19143 5.17051 4.42571 4.80179 4.80571C4.43027 5.18571 4.20122 5.71143 4.20122 6.28857C4.20122 7.44571 5.11744 8.38286 6.24875 8.38286C6.24875 8.38286 8.77115 8.44857 10.4444 8.51429C13.5701 8.63714 16.2043 11.1143 16.3803 14.3114C16.3859 14.4314 16.3914 14.5514 16.3914 14.6714C16.3914 17.7543 14.2322 20.32 11.3718 20.8686Z" fill="#595656"/>
<path d="M29.294 7.45428C27.6515 7.45428 26.3163 8.82 26.3163 10.4971C26.3163 12.1743 27.6515 13.5429 29.294 13.5429C30.9365 13.5429 32.2661 12.1771 32.2661 10.4971C32.2661 8.81714 30.9309 7.45428 29.294 7.45428Z" fill="#35A3DC"/>
</g>
<defs>
<clipPath id="clip0_142_3068">
<rect width="120" height="21" fill="white"/>
</clipPath>
</defs>
</svg>
